<svg id="Layer_1" data-name="Layer 1" xmlns="http://www.w3.org/2000/svg" viewBox="0 0 78.8802 75.73628">
    <defs>
        <style>.cls-1{fill:#fff;}.cls-2{fill:#4a781e;}.cls-3{fill:#CC5500;}</style>
    </defs>
    <title>app-SIV</title>
    <path class="cls-3" d="M12.18414,54.44807c0-4.51066,2.75569-8.16724,6.15494-8.16724S24.494,49.93741,24.494,54.44807a10.50876,10.50876,0,0,1-.29375,2.36731h9.58338a10.50876,10.50876,0,0,1-.29375-2.36731c0-4.51066,2.75569-8.16724,6.15494-8.16724s6.15494,3.65658,6.15494,8.16724a10.50876,10.50876,0,0,1-.29375,2.36731h9.99979V49.62228A7.8699,7.8699,0,0,1,58.465,43.49465v-3.506A3.40237,3.40237,0,0,1,60.634,36.82128c-.01257-.22439-.03858-.44185-.03858-.672,0-3.7859,1.74889-6.855,3.90612-6.855s3.90612,3.06909,3.90612,6.855c0,.23017-.026.44763-.03858.672a3.40237,3.40237,0,0,1,2.16907,3.16734v3.506a7.8699,7.8699,0,0,1,2.95913,6.12763v2.627A37.88511,37.88511,0,1,0,5.69283,56.81538h6.78506A10.50876,10.50876,0,0,1,12.18414,54.44807Z"/>
    <path class="cls-2" d="M71.59272,14.48355c-1.70513-.12617-3.4223-.21067-5.161-.21067-29.91462,0-55.22146,19.01715-63.63253,45.19745H15.42214C22.10864,35.09359,41.89849,16.54236,71.59272,14.48355Z"/>
    <path class="cls-2" d="M75.53429,14.83492c-.78723-.099-1.57547-.19412-2.37126-.26643C44.14409,17.04342,24.80781,35.42768,18.21293,59.47033h11.2227C34.23493,36.13157,48.67972,18.13366,75.53429,14.83492Z"/>
</svg>
