<svg id="Layer_1" data-name="Layer 1" xmlns="http://www.w3.org/2000/svg" viewBox="0 0 78.8802 75.73628">
    <defs>
        <style>.cls-1{fill:#fff;}.cls-2{fill:#4a781e;}.cls-3{fill:#CC5500;}</style>
    </defs>
    <title>app-SIV</title>
    <path class="cls-3" d="M12.18414,54.44807c0-4.51066,2.75569-8.16724,6.15494-8.16724S24.494,49.93741,24.494,54.44807a10.50876,10.50876,0,0,1-.29375,2.36731h9.58338a10.50876,10.50876,0,0,1-.29375-2.36731c0-4.51066,2.75569-8.16724,6.15494-8.16724s6.15494,3.65658,6.15494,8.16724a10.50876,10.50876,0,0,1-.29375,2.36731h9.99979V49.62228A7.8699,7.8699,0,0,1,58.465,43.49465v-3.506A3.40237,3.40237,0,0,1,60.634,36.82128c-.01257-.22439-.03858-.44185-.03858-.672,0-3.7859,1.74889-6.855,3.90612-6.855s3.90612,3.06909,3.90612,6.855c0,.23017-.026.44763-.03858.672a3.40237,3.40237,0,0,1,2.16907,3.16734v3.506a7.8699,7.8699,0,0,1,2.95913,6.12763v2.627A37.88511,37.88511,0,1,0,5.69283,56.81538h6.78506A10.50876,10.50876,0,0,1,12.18414,54.44807Z"/>
    <path class="cls-2" d="M71.59272,14.48355c-1.70513-.12617-3.4223-.21067-5.161-.21067-29.91462,0-55.22146,19.01715-63.63253,45.19745H15.42214C22.10864,35.09359,41.89849,16.54236,71.59272,14.48355Z"/>
    <path class="cls-2" d="M75.53429,14.83492c-.78723-.099-1.57547-.19412-2.37126-.26643C44.14409,17.04342,24.80781,35.42768,18.21293,59.47033h11.2227C34.23493,36.13157,48.67972,18.13366,75.53429,14.83492Z"/>
    <path class="cls-3" d="M.41858,73.50981a5.86713,5.86713,0,0,0,2.96878.83727c1.69368,0,2.68319-.89444,2.68319-2.18843,0-1.19892-.685-1.88395-2.41674-2.55008C1.56045,68.86638.26645,67.78167.26645,65.97378c0-1.99816,1.65541-3.48255,4.14845-3.48255a5.82833,5.82833,0,0,1,2.83555.628L6.7936,64.47038a5.10823,5.10823,0,0,0-2.43587-.609c-1.75061,0-2.41674,1.04668-2.41674,1.9221,0,1.19892.78023,1.78887,2.55,2.4739,2.16942.83739,3.27326,1.88407,3.27326,3.768,0,1.97914-1.46526,3.69184-4.49119,3.69184A6.62793,6.62793,0,0,1,0,74.899Z"/>
    <path class="cls-3" d="M20.32435,68.98059c0,4.415-2.68342,6.75569-5.95645,6.75569-3.38735,0-5.76629-2.62614-5.76629-6.50825,0-4.0725,2.53107-6.73679,5.95645-6.73679C18.05974,62.49123,20.32435,65.17454,20.32435,68.98059Zm-9.95277.20929c0,2.74035,1.48415,5.19524,4.09152,5.19524,2.626,0,4.11041-2.41674,4.11041-5.32835,0-2.55008-1.332-5.21437-4.09152-5.21437C11.74164,63.8424,10.37158,66.37346,10.37158,69.18988Z"/>
    <path class="cls-3" d="M21.80874,62.8719a17.24633,17.24633,0,0,1,3.17806-.26645,5.24492,5.24492,0,0,1,3.71074,1.04668A3.19391,3.19391,0,0,1,29.70618,66.088a3.36782,3.36782,0,0,1-2.41674,3.27326v.057a3.19667,3.19667,0,0,1,1.88383,2.58811A20.41768,20.41768,0,0,0,30.163,75.527H28.45022a16.609,16.609,0,0,1-.85629-3.06385c-.38078-1.76986-1.06581-2.43587-2.5691-2.49292H23.46438V75.527H21.80874Zm1.65565,5.84224h1.69368c1.76974,0,2.89248-.9705,2.89248-2.43587,0-1.65565-1.1988-2.37871-2.94964-2.39772a6.81529,6.81529,0,0,0-1.63651.15213Z"/>
    <path class="cls-3" d="M38.02244,69.51338H33.03661V74.1378h5.55677V75.527H31.381V62.70064H38.308v1.38919H33.03661v4.05348h4.98583Z"/>
    <path class="cls-3" d="M42.81789,64.10885H38.91653V62.70064h9.49616v1.40821H44.49243V75.527H42.81789Z"/>
    <path class="cls-3" d="M49.174,62.8719a17.24633,17.24633,0,0,1,3.17806-.26645,5.24492,5.24492,0,0,1,3.71074,1.04668A3.19391,3.19391,0,0,1,57.07146,66.088a3.36782,3.36782,0,0,1-2.41674,3.27326v.057a3.19667,3.19667,0,0,1,1.88383,2.58811A20.41768,20.41768,0,0,0,57.5283,75.527H55.81549a16.609,16.609,0,0,1-.85629-3.06385c-.38078-1.76986-1.06581-2.43587-2.5691-2.49292H50.82966V75.527H49.174Zm1.65565,5.84224h1.69368c1.76974,0,2.89248-.9705,2.89248-2.43587,0-1.65565-1.1988-2.37871-2.94964-2.39772a6.81529,6.81529,0,0,0-1.63651.15213Z"/>
    <path class="cls-3" d="M60.91542,71.49264l-1.332,4.03435H57.87058l4.358-12.82635h1.99816L68.60358,75.527H66.83384l-1.37006-4.03435ZM65.121,70.19852l-1.256-3.69184c-.28535-.83739-.47574-1.5986-.6659-2.34079H63.1609c-.19016.76121-.39945,1.54155-.647,2.32178l-1.256,3.71085Z"/>
    <path class="cls-3" d="M69.82175,62.70064h1.65565v6.18475h.05693c.34252-.49476.68526-.95148,1.00865-1.37018l3.92026-4.81458h2.05532l-4.64332,5.44268,5.005,7.38367H76.92007l-4.22474-6.299-1.21794,1.40821V75.527H69.82175Z"/>
</svg>
