<svg xmlns="http://www.w3.org/2000/svg" version="1.1" viewBox="-5.0 -10.0 110.0 135.0">
 <path d="m26.711 78.125v9.375c0 0.80859-0.65625 1.4648-1.4648 1.4648s-1.4648-0.65625-1.4648-1.4648v-9.375c0-0.80859 0.65625-1.4648 1.4648-1.4648 0.80469 0 1.4648 0.65625 1.4648 1.4648zm10.25-40.723c1.2383 0 2.2461-1.0078 2.2461-2.2461s-1.0078-2.2461-2.2461-2.2461c-1.2383 0-2.2461 1.0078-2.2461 2.2461 0.003906 1.2383 1.0117 2.2461 2.2461 2.2461zm10.945 0c1.2422 0 2.25-1.0078 2.25-2.2461s-1.0117-2.2461-2.25-2.2461c-1.2422 0-2.25 1.0078-2.25 2.2461s1.0078 2.2461 2.25 2.2461zm-22.562 1.6602v-18.75c0-5.1172 4.1641-9.2773 9.2773-9.2773h12.5c2.0508 0 3.7891 1.3516 4.3789 3.2109 4.5234 0.61328 8.0234 4.5 8.0234 9.1953v15.625c0 9.4219-7.6641 17.09-17.09 17.09-9.4258-0.003906-17.09-7.6719-17.09-17.094zm2.9297 0c0 7.8086 6.3516 14.16 14.16 14.16s14.16-6.3516 14.16-14.16v-7.4648l-1.4844-2.9727c-0.66406-1.332-2.0039-2.1602-3.4922-2.1602h-18.367c-1.4883 0-2.8281 0.82812-3.4922 2.1602l-1.4844 2.9727-0.003907 7.4648zm9.5703 4.6875c0 0.80859 0.65625 1.4648 1.4648 1.4648h6.25c0.80859 0 1.4648-0.65625 1.4648-1.4648s-0.65625-1.4648-1.4648-1.4648h-6.25c-0.80859 0-1.4648 0.65625-1.4648 1.4648zm50.875 28.125c0 9.1562-7.4492 16.602-16.602 16.602-4.2344 0-8.1016-1.5938-11.035-4.2109l0.003907 3.2344c0 0.80859-0.65625 1.4648-1.4648 1.4648s-1.4648-0.65625-1.4648-1.4648v-6.25c0-0.11719 0.015625-0.23438 0.042969-0.34375-1.6953-2.6016-2.6797-5.7031-2.6797-9.0312 0-4.1836 1.5547-8.0117 4.1172-10.934-0.52734-0.066406-1.0625-0.10156-1.6016-0.10156h-10.559l-2.4453 4.8906 4.5898 16.828c0.10547 0.38672-0.035156 0.79688-0.35547 1.0391l-6.25 4.6875c-0.17188 0.12891-0.37891 0.19531-0.58594 0.19531-0.20703 0-0.41406-0.066407-0.58594-0.19531l-6.25-4.6875c-0.32031-0.24219-0.46094-0.65234-0.35547-1.0391l4.5898-16.828-2.4453-4.8906h-10.559c-6.957 0-12.617 5.6602-12.617 12.617l0.003907 14.043c0 0.80859-0.65625 1.4648-1.4648 1.4648s-1.4648-0.65625-1.4648-1.4648v-14.043c0-8.5703 6.9727-15.547 15.547-15.547h31.211c1.4453 0 2.8789 0.19922 4.2578 0.58984 2.75-2.0273 6.1484-3.2266 9.8203-3.2266 9.1562 0 16.602 7.4453 16.602 16.602zm-20.312-3.125c0-1.1836 0.96484-2.1484 2.1484-2.1484h3.125c1.1836 0 2.1484 0.96484 2.1484 2.1484 0 0.53906 0.4375 0.97656 0.97656 0.97656 0.53906 0 0.97656-0.4375 0.97656-0.97656 0-2.2617-1.8398-4.1016-4.1016-4.1016h-0.58594v-1.6602c0-0.53906-0.4375-0.97656-0.97656-0.97656-0.53906 0-0.97656 0.4375-0.97656 0.97656v1.6602h-0.58594c-2.2617 0-4.1016 1.8398-4.1016 4.1016s1.8398 4.1016 4.1016 4.1016h3.125c1.1836 0 2.1484 0.96484 2.1484 2.1484s-0.96484 2.1484-2.1484 2.1484h-3.125c-1.1836 0-2.1484-0.96484-2.1484-2.1484 0-0.53906-0.4375-0.97656-0.97656-0.97656-0.53906 0-0.97656 0.4375-0.97656 0.97656 0 2.2617 1.8398 4.1016 4.1016 4.1016h0.58594v1.6602c0 0.53906 0.4375 0.97656 0.97656 0.97656 0.53906 0 0.97656-0.4375 0.97656-0.97656v-1.6602h0.58594c2.2617 0 4.1016-1.8398 4.1016-4.1016s-1.8398-4.1016-4.1016-4.1016h-3.125c-1.1836 0-2.1484-0.96484-2.1484-2.1484z"/>
</svg>
