<svg xmlns="http://www.w3.org/2000/svg" data-name="Layer 1" viewBox="0 0 128 160" x="0px" y="0px"><title>miscellaneous 356 final</title><path d="M2,92H8a2,2,0,0,0,0-4H2a2,2,0,0,0,0,4Z"/><path d="M126,88h-6a2,2,0,0,0,0,4h6a2,2,0,0,0,0-4Z"/><path d="M126,98H2a2,2,0,0,0,0,4H126a2,2,0,0,0,0-4Z"/><path d="M70.5,34H82.67175l-.58582.58594a1.99979,1.99979,0,1,0,2.82813,2.82813l4-4a1.99927,1.99927,0,0,0,0-2.82812l-4-4a1.99979,1.99979,0,0,0-2.82812,2.82813L82.67175,30H70.5a2,2,0,0,0,0,4Z"/><path d="M28.902,88a11.96493,11.96493,0,0,1-8.63483,3.98212c.05927.00531.11646.01788.17712.01788H32.88867a2,2,0,1,0,0-4Z"/><path d="M45.333,88a2,2,0,0,0,0,4H57.77783a2,2,0,1,0,0-4Z"/><path d="M76.902,88a11.98442,11.98442,0,0,1-7.29968,3.89209A1.9776,1.9776,0,0,0,70.22217,92H82.6665a2,2,0,1,0,0-4Z"/><path d="M107.55566,92a2,2,0,0,0,0-4H95.11084a2,2,0,1,0,0,4Z"/><path d="M126,78H93.94434a8.93459,8.93459,0,0,1-1.45239,4H126a2,2,0,0,0,0-4Z"/><path d="M8,82h4.26331a7.988,7.988,0,0,0,15.47339,0H60.26331a7.988,7.988,0,0,0,15.47339,0h9.30969A4.97134,4.97134,0,0,0,90,77.022V62.7085a6.98035,6.98035,0,0,0-1.12109-3.79932L79.022,43.65771A7.96859,7.96859,0,0,0,72.30322,40H8a8.00917,8.00917,0,0,0-8,8V74A8.00917,8.00917,0,0,0,8,82Zm12,2a4,4,0,1,1,4-4A4.00458,4.00458,0,0,1,20,84Zm48,0a4,4,0,1,1,4-4A4.00458,4.00458,0,0,1,68,84ZM4,48a4.00458,4.00458,0,0,1,4-4H72.30322a3.98527,3.98527,0,0,1,3.35938,1.82861L85.52,61.08057A2.993,2.993,0,0,1,86,62.7085v1.458H4ZM4,68.1665H86V77.022a.96725.96725,0,0,1-.95361.978H75.73669a7.988,7.988,0,0,0-15.47339,0H27.73669a7.988,7.988,0,0,0-15.47339,0H8a4.00458,4.00458,0,0,1-4-4Z"/><path d="M73.18555,49.37256A2.98729,2.98729,0,0,0,70.666,48H65a3.00328,3.00328,0,0,0-3,3v7a3.00328,3.00328,0,0,0,3,3H75.19238a3,3,0,0,0,2.51953-4.62842ZM66,57V52h4.12158l3.2334,5Z"/><path d="M53.5,47h-5A4.50492,4.50492,0,0,0,44,51.5v5A4.50492,4.50492,0,0,0,48.5,61h5A4.50492,4.50492,0,0,0,58,56.5v-5A4.50492,4.50492,0,0,0,53.5,47Zm.5,9.5a.50034.50034,0,0,1-.5.5h-5a.50034.50034,0,0,1-.5-.5v-5a.50034.50034,0,0,1,.5-.5h5a.50034.50034,0,0,1,.5.5Z"/><path d="M35.5,47h-5A4.50492,4.50492,0,0,0,26,51.5v5A4.50492,4.50492,0,0,0,30.5,61h5A4.50492,4.50492,0,0,0,40,56.5v-5A4.50492,4.50492,0,0,0,35.5,47Zm.5,9.5a.50034.50034,0,0,1-.5.5h-5a.50034.50034,0,0,1-.5-.5v-5a.50034.50034,0,0,1,.5-.5h5a.50034.50034,0,0,1,.5.5Z"/><path d="M17.5,47h-5A4.50492,4.50492,0,0,0,8,51.5v5A4.50492,4.50492,0,0,0,12.5,61h5A4.50492,4.50492,0,0,0,22,56.5v-5A4.50492,4.50492,0,0,0,17.5,47Zm.5,9.5a.50034.50034,0,0,1-.5.5h-5a.50034.50034,0,0,1-.5-.5v-5a.50034.50034,0,0,1,.5-.5h5a.50034.50034,0,0,1,.5.5Z"/></svg>
